<svg width="56" height="66" viewBox="0 0 56 66" fill="none" xmlns="http://www.w3.org/2000/svg">
<path fill-rule="evenodd" clip-rule="evenodd" d="M18.9524 48.9802C17.8528 47.7906 16.7131 46.657 15.4926 45.4403C8.69409 38.6851 -0.474708 29.5607 0.0191355 18.7174C0.402147 10.2239 7.21067 4.64905 16.0273 2.10334C23.8332 -0.0788793 32.1671 -0.0788793 39.9734 2.10334C48.7899 4.64936 55.5985 10.2244 55.9816 18.7269C56.4655 29.5707 47.2967 38.6859 40.5082 45.4497C39.2776 46.6671 38.148 47.7913 37.0384 48.9896L36.1006 50.0025V50.0862H19.9615L18.9529 49.0081L18.9524 48.9802ZM30.2194 6.79548V42.5694C37.28 28.8919 44.654 14.2025 35.7874 7.53003V7.52941C33.9566 7.1415 32.0943 6.89644 30.2194 6.79546V6.79548ZM26.1239 42.8106V6.77656C24.2402 6.86277 22.368 7.09305 20.5258 7.46373C11.4479 14.1352 18.9624 29.0116 26.1239 42.7726V42.8106ZM43.5231 10.4556C46.62 18.5021 41.8386 29.5681 36.3208 40.4304C42.1916 34.5765 49.5649 26.8829 49.212 18.966C49.0509 15.324 46.8417 12.4619 43.5231 10.4547V10.4556ZM20.1314 40.8859C14.4725 29.8008 9.48944 18.4648 12.768 10.2791C9.2983 12.3141 6.9581 15.213 6.7863 18.9671C6.42335 27.0973 14.1905 34.9759 20.1314 40.8854V40.8859Z" fill="white"/>
<path fill-rule="evenodd" clip-rule="evenodd" d="M36.0914 51.4707L35.3147 57.2784V62.1193C35.3147 63.9776 33.3683 65.52 30.9873 65.52H25.0865C22.7063 65.52 20.7592 63.9868 20.7592 62.1193V57.4735L19.9624 51.4991H23.2711L23.8159 55.55H32.2381L32.7829 51.4991L36.0914 51.4707Z" fill="white"/>
</svg>
